<?xml version="1.0" encoding="UTF-8" standalone="no"?>
<svg width="116px" height="135px" viewBox="0 0 116 135" version="1.1" xmlns="http://www.w3.org/2000/svg" xmlns:xlink="http://www.w3.org/1999/xlink">
    <!-- Generator: Sketch 40.1 (33804) - http://www.bohemiancoding.com/sketch -->
    <title>MEESHO</title>
    <desc>Created with Sketch.</desc>
    <defs></defs>
    <g id="Hompage" stroke="none" stroke-width="1" fill="none" fill-rule="evenodd">
        <g id="Portfolio" transform="translate(-1026.000000, -193.000000)" fill="#454560">
            <g id="MEESHO" transform="translate(1026.000000, 193.000000)">
                <path d="M16.4225426,116.846523 C18.2812403,116.859934 19.844093,117.520629 21.1254884,118.828609 C22.4248682,120.138377 23.0687132,121.699371 23.0570233,123.546457 L23.0075659,132.217748 C23.0012713,133.25394 22.1515039,134.088079 21.1102016,134.081821 C20.0697984,134.074669 19.2317209,133.230695 19.2371163,132.197185 L19.2865736,123.521424 C19.291969,122.718576 19.0213023,122.031954 18.4404031,121.46245 C17.8936744,120.895629 17.2066667,120.616689 16.3973643,120.611325 C15.571876,120.60596 14.8551938,120.899205 14.2697984,121.510728 C13.740155,122.064139 13.4739845,122.821391 13.4694884,123.584007 L13.4209302,132.129238 C13.4146357,133.178841 12.5531783,134.024603 11.4974884,134.018344 C10.4426977,134.011192 9.59293023,133.155596 9.59922481,132.107781 L9.64868217,123.506225 C9.65227907,122.755232 9.39420155,122.007815 8.87714729,121.459768 C8.30164341,120.850033 7.59575194,120.553212 6.75857364,120.547848 C5.96725581,120.542483 5.29283721,120.811589 4.70474419,121.372152 C4.15082171,121.931821 3.85407752,122.616656 3.8495814,123.419503 L3.80012403,132.081854 C3.79382946,133.122517 2.94046512,133.961126 1.89376744,133.953974 C0.847968992,133.947715 0.00629457364,133.100166 0.0125891473,132.061291 L0.0620465116,123.421291 C0.0710387597,121.821854 0.634852713,120.256391 1.70852713,119.064636 C3.09063566,117.530464 4.79556589,116.769636 6.78375194,116.783046 C8.67751938,116.796457 10.2907287,117.474139 11.5892093,118.851854 C12.9245581,117.49202 14.5296744,116.834007 16.4225426,116.846523" id="Fill-12"></path>
                <path d="M38.1388217,123.057417 C37.6109767,120.999338 36.3169922,119.96404 34.2505736,119.950629 C33.7811783,119.947053 33.3387597,120.015 32.9251163,120.157152 C32.5096744,120.295728 32.1328992,120.49957 31.7929922,120.765099 C31.452186,121.029735 31.1608372,121.349801 30.9162481,121.724404 C30.6725581,122.099901 30.4864186,122.525464 30.3569302,123.005563 L38.1388217,123.057417 L38.1388217,123.057417 Z M42.0927132,126.232152 L30.0781705,126.152583 C30.1725891,127.522252 30.6123101,128.615662 31.3991318,129.430132 C32.1850543,130.233874 33.1975814,130.639768 34.4367132,130.647815 C35.4006822,130.654967 36.200093,130.432351 36.8349457,129.979073 C37.208124,129.708179 37.6136744,129.296921 38.0506977,128.747086 C38.6154109,128.037219 39.5964651,127.813709 40.3877829,128.259834 L40.5019845,128.324205 C41.4893333,128.880298 41.7123411,130.193642 40.9857674,131.061755 C40.8625736,131.208377 40.7375814,131.349636 40.6116899,131.484636 C40.0451783,132.091689 39.4391008,132.590563 38.7934574,132.97947 C38.1487132,133.368377 37.4527132,133.650894 36.7063566,133.828808 C35.9582016,134.006722 35.1488992,134.093444 34.2766512,134.087185 C31.7750078,134.070199 29.7715349,133.259305 28.268031,131.650927 C26.7636279,130.032715 26.0208682,127.893278 26.0379535,125.234404 C26.055938,122.598775 26.804093,120.471854 28.2842171,118.85096 C29.7769302,117.250629 31.7444341,116.460298 34.1885271,116.476391 C36.6551008,116.492483 38.6010233,117.286391 40.0253953,118.859007 C41.4371783,120.420894 42.1340775,122.574636 42.1169922,125.324702 L42.0927132,126.232152 L42.0927132,126.232152 Z" id="Fill-13"></path>
                <path d="M57.6412093,123.336358 C57.1142636,121.278278 55.8193798,120.24298 53.7538605,120.228675 C53.2835659,120.225993 52.8411473,120.29394 52.4275039,120.436093 C52.012062,120.575563 51.636186,120.77851 51.2953798,121.04404 C50.9545736,121.307781 50.6632248,121.628742 50.4195349,122.003344 C50.175845,122.378841 49.9897054,122.805298 49.8593178,123.284503 L57.6412093,123.336358 L57.6412093,123.336358 Z M61.596,126.511093 L49.5805581,126.430629 C49.6749767,127.800298 50.1155969,128.893709 50.9015194,129.708179 C51.6883411,130.512815 52.7008682,130.918709 53.94,130.926755 C54.903969,130.932119 55.7024806,130.711291 56.3373333,130.258013 C56.7105116,129.987119 57.116062,129.575861 57.5539845,129.026026 C58.1177984,128.316159 59.0997519,128.092649 59.8901705,128.538775 L60.0043721,128.603146 C60.9926202,129.159238 61.2147287,130.472583 60.488155,131.340695 C60.3649612,131.487318 60.2408682,131.628576 60.1140775,131.763576 C59.5484651,132.370629 58.9414884,132.869503 58.2967442,133.258411 C57.652,133.647318 56.9551008,133.929834 56.2096434,134.107748 C55.4605891,134.285662 54.652186,134.370596 53.7790388,134.366126 C51.2773953,134.349139 49.2748217,133.538245 47.7713178,131.929868 C46.2660155,130.311656 45.524155,128.172219 45.5403411,125.513344 C45.5583256,122.877715 46.3064806,120.750795 47.7875039,119.129901 C49.2793178,117.52957 51.2468217,116.739238 53.6909147,116.755331 C56.1583876,116.771424 58.1043101,117.565331 59.5286822,119.137947 C60.9404651,120.699834 61.6373643,122.853576 61.6193798,125.603642 L61.596,126.511093 L61.596,126.511093 Z" id="Fill-14"></path>
                <path d="M73.811969,120.842881 L73.811969,120.842881 C73.0970853,121.214801 72.2437209,121.051192 71.6574264,120.501358 C71.3211163,120.186656 70.947938,120.028411 70.536093,120.025728 C70.18,120.023046 69.8751628,120.137483 69.6215814,120.369934 C69.3671008,120.603278 69.2385116,120.899205 69.235814,121.264868 C69.2313178,121.903212 69.9731783,122.541556 71.4604961,123.179007 C73.5089302,124.071258 74.8865426,124.890199 75.5924341,125.637616 C76.300124,126.383245 76.6490233,127.383675 76.640031,128.638907 C76.6301395,130.248179 76.024062,131.590132 74.8235969,132.665662 C73.6564031,133.685762 72.2527132,134.189106 70.6125271,134.177483 C68.5748837,134.164073 66.9733643,133.438113 65.807969,131.998709 C65.0652093,131.082318 65.4419845,129.698344 66.5192558,129.210199 C67.3015814,128.856159 68.235876,129.088609 68.7529302,129.771656 C68.8536434,129.904868 68.9435659,130.006788 69.0217984,130.077417 C69.4893953,130.514603 70.0505116,130.734536 70.7042481,130.739007 C72.0126202,130.747947 72.6717519,130.158775 72.6789457,128.972384 C72.6834419,128.288444 72.1825736,127.644735 71.1772403,127.044834 C70.787876,126.84904 70.3985116,126.657715 70.0100465,126.473543 C69.6206822,126.287583 69.2268217,126.097152 68.8266667,125.900464 C67.7053333,125.345265 66.9176124,124.792748 66.4617054,124.24202 C65.8817054,123.541093 65.5948527,122.644371 65.6029457,121.548278 C65.611938,120.101722 66.12,118.906391 67.1235349,117.964967 C68.1513488,117.024437 69.3940775,116.56043 70.8517209,116.570265 C72.1906667,116.579205 73.312,117.015497 74.2166202,117.878245 C75.1302326,118.750828 74.9342016,120.258179 73.811969,120.842881" id="Fill-15"></path>
                <path d="M82.2134264,104.869967 L82.2134264,104.869967 C83.2826047,104.877119 84.144062,105.745232 84.1368682,106.808245 L84.0577364,118.505861 C85.4434419,117.282815 86.9676279,116.676656 88.632093,116.687384 C90.5249612,116.700795 92.0356589,117.321258 93.1632868,118.548775 C94.1209612,119.616258 94.5912558,121.313146 94.575969,123.640331 L94.5193178,131.93255 C94.512124,132.996457 93.6389767,133.852947 92.5697984,133.844901 C91.4997209,133.837748 90.6382636,132.97053 90.6454574,131.906623 L90.6994109,123.973808 C90.7084031,122.639007 90.4764031,121.670762 90.0052093,121.069073 C89.5331163,120.467384 88.7687752,120.161623 87.7130853,120.155364 C86.3597519,120.146424 85.4047752,120.556788 84.848155,121.384669 C84.304124,122.226854 84.0235659,123.672517 84.0091783,125.726126 L83.967814,131.861921 C83.9606202,132.925828 83.0883721,133.782318 82.0182946,133.775166 C80.9491163,133.768013 80.0876589,132.899901 80.0948527,131.836887 L80.2630078,106.782318 C80.2702016,105.719305 81.1433488,104.862815 82.2134264,104.869967" id="Fill-16"></path>
                <path d="M101.958605,125.15394 C101.947814,126.82043 102.386636,128.140927 103.275969,129.117219 C104.186884,130.103344 105.393643,130.602219 106.897147,130.612947 C108.411442,130.621887 109.626295,130.145364 110.538109,129.181589 C111.451721,128.217815 111.913922,126.925927 111.923814,125.305033 C111.935504,123.685927 111.491287,122.387781 110.590264,121.41149 C109.67845,120.426258 108.47169,119.92649 106.969984,119.91755 C105.48986,119.906821 104.286698,120.390497 103.361395,121.363212 C102.437891,122.338609 101.969395,123.602781 101.958605,125.15394 L101.958605,125.15394 Z M98.0011163,125.060066 C98.0164031,122.653311 98.8976434,120.61043 100.640341,118.934106 C102.384837,117.255993 104.502512,116.426325 106.992465,116.443311 C109.494109,116.459404 111.609984,117.32394 113.344589,119.036026 C115.054016,120.746325 115.900186,122.839272 115.883101,125.314868 C115.866915,127.813709 114.985674,129.902185 113.242977,131.579404 C111.48769,133.244106 109.340341,134.068411 106.806326,134.051424 C104.292992,134.035331 102.192403,133.167219 100.504558,131.442616 C98.8185116,129.743046 97.984031,127.616126 98.0011163,125.060066 L98.0011163,125.060066 Z" id="Fill-17"></path>
                <path d="M57.5261085,10.7535099 C63.9942326,3.89086093 72.0342016,0.513178808 81.4652713,0.450596026 C91.3711318,0.380860927 99.8661085,4.17248344 106.753271,11.8165232 C112.100062,17.7502649 114.911039,25.5525497 114.956,33.5184437 L115.201488,94.1325497 C115.230264,99.3090397 111.036279,103.530695 105.829767,103.565563 C100.615163,103.60043 96.3618295,99.4225828 96.332155,94.2389404 L96.0866667,33.5112914 C96.0614884,29.5095695 94.5822636,26.100596 91.8261395,23.309404 C88.8937674,20.5182119 85.5351628,19.1789404 81.592062,19.2048675 C77.4205581,19.2307947 73.908186,20.7104305 71.0396589,23.7474834 C68.4615814,26.4769868 67.1756899,30.1997682 67.1972713,33.9440066 L67.4409612,74.901755 C67.4706357,80.1256291 63.2388837,84.3857285 57.9847132,84.419702 C52.7242481,84.4545695 48.4322481,80.2400662 48.4025736,75.0090397 L48.1606822,34.3311258 C48.1391008,30.5287748 46.811845,26.7568212 44.1753178,24.0022848 C41.2555349,20.9527152 37.6883101,19.4936424 33.5752558,19.5204636 C29.544031,19.5454967 26.1215814,20.9348344 23.396031,23.7626821 C20.5005271,26.595894 19.1534884,30.0173841 19.1786667,34.019106 L19.4250543,58.8331788 C19.4547287,63.9855298 15.2805271,68.1875166 10.0982946,68.2223841 C4.90796899,68.2572517 0.67351938,64.0990728 0.643844961,58.9386755 L0.398356589,34.1451656 C0.340806202,24.9419205 3.54744186,17.1655629 10.020062,10.6408609 C16.4045581,4.12152318 24.1873488,0.829668874 33.4493643,0.767086093 C42.8804341,0.703609272 50.8772403,3.9802649 57.5261085,10.7535099" id="Fill-18"></path>
            </g>
        </g>
    </g>
</svg>