<svg id="Layer_1" data-name="Layer 1" xmlns="http://www.w3.org/2000/svg" viewBox="0 0 54 54"><title>Blink Logo</title><path d="M30.3,48.5a5,5,0,0,1-5-5V10.5a1.5,1.5,0,0,0-.5-1.1A1.5,1.5,0,0,0,23.7,9a1.6,1.6,0,0,0-1.2.5L9.4,22.6a1.5,1.5,0,0,0,1.1,2.6h8.3l3.5,3.5H10.5A5,5,0,0,1,7,20.2L20.1,7a5,5,0,0,1,7.1,0,5.2,5.2,0,0,1,1.5,3.8V43.5A1.5,1.5,0,0,0,30.3,45a1.7,1.7,0,0,0,1.1-.5L44.5,31.4a1.5,1.5,0,0,0,0-2.2,1.6,1.6,0,0,0-1.1-.5H35.2l-3.5-3.5H43.5A5.1,5.1,0,0,1,47,26.7a5,5,0,0,1,1.5,3.6A5,5,0,0,1,47,33.9L33.9,46.9A5,5,0,0,1,30.3,48.5Z"/></svg>