<?xml version="1.0" encoding="UTF-8" standalone="no"?>
<svg width="109px" height="143px" viewBox="0 0 109 143" version="1.1" xmlns="http://www.w3.org/2000/svg" xmlns:xlink="http://www.w3.org/1999/xlink">
    <!-- Generator: Sketch 40.1 (33804) - http://www.bohemiancoding.com/sketch -->
    <title>Blink Logo-02</title>
    <desc>Created with Sketch.</desc>
    <defs></defs>
    <g id="Hompage" stroke="none" stroke-width="1" fill="none" fill-rule="evenodd">
        <g id="Portfolio" transform="translate(-596.000000, -189.000000)" fill="#454560">
            <g id="Blink-Logo-02" transform="translate(596.000000, 189.000000)">
                <path d="M95.5884583,49.441875 L66.1054722,49.441875 L74.8269861,58.1660417 L95.5218472,58.1660417 C97.7139583,58.1660417 99.4322222,59.8169271 99.4322222,61.93 C99.4322222,62.98125 99.0280139,63.9569792 98.2998333,64.6608333 L65.5710694,97.3840104 C64.8595417,98.1059896 63.79225,98.5258854 62.661375,98.5258854 C61.585,98.5258854 60.6085417,98.1422396 59.9939028,97.5139063 C59.2596667,96.7994792 58.8388056,95.8026042 58.8388056,94.7649479 L58.8342639,13.4350521 C58.8342639,9.58651042 57.6019583,6.40708333 55.18125,3.98286458 C52.7923333,1.59640625 49.6328472,0.292916667 46.2765556,0.292916667 C42.9217778,0.292916667 39.7683472,1.59640625 37.3915417,3.98286458 L4.53258333,36.8027083 C2.16334722,39.1801042 0.856861111,42.3323438 0.856861111,45.6930208 C0.856861111,49.0536979 2.16334722,52.2044271 4.53258333,54.5485938 C6.88970833,56.8927604 10.0446528,58.1826563 13.4039722,58.1826563 L42.8899861,58.1826563 L34.1669583,49.4584896 L13.4720972,49.4584896 C11.2830139,49.4584896 9.56475,47.8060938 9.56475,45.6930208 C9.56475,44.6417708 9.96744444,43.6660417 10.6941111,42.9606771 L43.4243889,10.2375 C44.1374306,9.51854167 45.2032083,9.09864583 46.3355972,9.09864583 C47.4104583,9.09864583 48.3869167,9.48229167 49.0000417,10.110625 C49.7357917,10.8250521 50.1566528,11.8219271 50.1566528,12.8580729 L50.1611944,94.1864583 C50.1611944,98.0365104 51.3935,101.217448 53.8157222,103.638646 C56.2046389,106.026615 59.3626111,107.331615 62.7189028,107.331615 C66.0736806,107.331615 69.2271111,106.026615 71.6054306,103.638646 L104.462875,70.8203125 C106.833625,68.4429167 108.140111,65.2921875 108.140111,61.93 C108.140111,58.5708333 106.833625,55.4201042 104.462875,53.0729167 C102.107264,50.7332813 98.9523194,49.441875 95.5884583,49.441875 Z" id="Fill-1"></path>
                <path d="M9.86601389,131.549635 C9.62984722,131.918177 9.30738889,132.200625 8.87290278,132.407552 C8.43538889,132.6175 7.89493056,132.72474 7.262125,132.72474 L3.365375,132.72474 L3.365375,127.803802 L6.43251389,127.803802 C7.17431944,127.803802 7.7935,127.853646 8.284,127.951823 C8.73816667,128.045469 9.11058333,128.190469 9.38611111,128.385312 C9.65558333,128.577135 9.85844444,128.815781 9.99620833,129.116354 C10.1385139,129.422969 10.2142083,129.78849 10.2142083,130.211406 C10.2142083,130.737031 10.096125,131.187135 9.86601389,131.549635 L9.86601389,131.549635 Z M3.365375,134.960156 L7.64665278,134.960156 C8.66398611,134.960156 9.48602778,135.213906 10.0840139,135.712344 C10.6714028,136.200208 10.9545,136.849687 10.9545,137.69401 C10.9545,138.325365 10.8106806,138.857031 10.5275833,139.266354 C10.2384306,139.68776 9.85995833,139.986823 9.36945833,140.19224 C8.86381944,140.406719 8.26583333,140.512448 7.58761111,140.512448 L3.365375,140.512448 L3.365375,134.960156 L3.365375,134.960156 Z M10.8031111,133.617396 C11.3693056,133.211094 11.79925,132.767031 12.0793194,132.29276 C12.4789861,131.628177 12.6788194,130.895625 12.6788194,130.11776 C12.6788194,129.17526 12.4320556,128.346042 11.9612361,127.654271 C11.485875,126.970052 10.8152222,126.442917 9.95836111,126.09099 C9.13177778,125.748125 8.15531944,125.580469 7.05018056,125.580469 L0.858375,125.580469 L0.858375,142.681406 L7.75111111,142.681406 C8.94859722,142.681406 9.99923611,142.459375 10.8682083,142.028906 C11.7523194,141.590885 12.4199444,140.998802 12.8438333,140.26474 C13.2662083,139.54276 13.4796667,138.680313 13.4796667,137.69401 C13.4796667,136.671458 13.202625,135.775781 12.6545972,135.026615 C12.2413056,134.454167 11.6190972,133.981406 10.8031111,133.617396 L10.8031111,133.617396 Z" id="Fill-2"></path>
                <polygon id="Fill-3" points="51.3435417 142.681406 53.8838472 142.681406 53.8838472 125.580469 51.3435417 125.580469"></polygon>
                <polyline id="Fill-4" points="81.6531111 125.594062 79.1279444 125.594062 79.1279444 138.097292 70.2974306 125.594062 67.77075 125.594062 67.77075 142.698021 70.2974306 142.698021 70.2974306 130.196302 79.1279444 142.707083 81.6531111 142.698021 81.6531111 125.594062"></polyline>
                <polyline id="Fill-5" points="28.5640556 140.258698 28.5640556 125.580469 26.1039861 125.580469 26.1039861 142.681406 38.72225 142.681406 38.72225 140.258698 28.5640556 140.258698"></polyline>
                <polyline id="Fill-6" points="105.350014 142.682917 108.141625 142.675365 101.943764 132.451354 108.138597 125.580469 104.789875 125.580469 98.0560972 133.046458 98.0560972 125.580469 95.5188194 125.580469 95.5188194 142.681406 98.0560972 142.681406 98.0560972 136.760573 100.275458 134.300104 105.350014 142.682917"></polyline>
            </g>
        </g>
    </g>
</svg>