<?xml version="1.0" encoding="UTF-8"?>
<svg width="166px" height="121px" viewBox="0 0 166 121" version="1.1" xmlns="http://www.w3.org/2000/svg" xmlns:xlink="http://www.w3.org/1999/xlink">
    <!-- Generator: Sketch 43.1 (39012) - http://www.bohemiancoding.com/sketch -->
    <title>WITWORKS</title>
    <desc>Created with Sketch.</desc>
    <defs></defs>
    <g id="Co-locate" stroke="none" stroke-width="1" fill="none" fill-rule="evenodd">
        <g id="Pages-|-Design-15-|-Pricing-Copy-7" transform="translate(-567.000000, -200.000000)" fill="#70708B">
            <g id="WITWORKS" transform="translate(567.000000, 200.000000)">
                <path d="M0.351838879,98.6606702 L4.40784578,98.6606702 C4.79497233,98.6606702 5.11775077,98.7526222 5.38137046,98.9344124 C5.64291441,99.1172595 5.80793618,99.347668 5.87747366,99.6288086 L8.92051671,111.148175 C9.08553848,111.777042 9.22046195,112.394283 9.32424923,112.997784 C9.42699863,113.600229 9.52663442,114.202673 9.62419447,114.80406 C9.7757239,114.202673 9.93866992,113.600229 10.1109568,112.997784 C10.2822058,112.394283 10.4659093,111.777042 10.6599915,111.148175 L14.1783803,99.5865318 C14.2603723,99.3064481 14.425394,99.0760396 14.6744835,98.8931925 C14.923573,98.7103454 15.2121016,98.6194504 15.5442209,98.6194504 L17.8005564,98.6194504 C18.1721148,98.6194504 18.4834767,98.7103454 18.7315283,98.8931925 C18.9795799,99.0760396 19.1446017,99.3064481 19.2286693,99.5865318 L22.7055432,111.357445 C22.8850952,111.959889 23.0470034,112.545423 23.1923056,113.111932 C23.3365699,113.680554 23.4777206,114.251291 23.6167955,114.825198 C23.7122798,114.222754 23.8202186,113.62031 23.9374982,113.016809 C24.05374,112.415422 24.2031937,111.791839 24.3827457,111.148175 L27.5285381,99.6288086 C27.5980756,99.347668 27.7630974,99.1172595 28.0256792,98.9344124 C28.288261,98.7526222 28.5913199,98.6606702 28.9358936,98.6606702 L32.8071592,98.6606702 L26.0796677,120.227114 L21.9603506,120.227114 C21.5192546,120.227114 21.2006277,119.919551 21.0086212,119.30231 L17.1799084,106.838057 C17.0553637,106.431143 16.9411977,106.022115 16.8374104,105.60886 C16.734661,105.194547 16.6474797,104.785519 16.5779422,104.378605 C16.4959503,104.799259 16.4056553,105.216742 16.310171,105.629998 C16.212611,106.043253 16.1036344,106.458623 15.9790896,106.880334 L12.1078241,119.30231 C11.9137419,119.919551 11.5421834,120.227114 10.9900351,120.227114 L7.07829249,120.227114 L0.351838879,98.6606702" id="Fill-1"></path>
                <path d="M36.5113272,120.227114 L41.6249265,120.227114 L41.6249265,98.6606702 L36.5113272,98.6606702 L36.5113272,120.227114 Z M42.3908766,92.3762264 C42.3908766,92.8254172 42.3005817,93.2450143 42.1210297,93.6371315 C41.9414777,94.0292486 41.7027669,94.3738044 41.4069732,94.668685 C41.1101416,94.9614517 40.7614163,95.1960878 40.3618353,95.3725934 C39.9612164,95.5469851 39.5336128,95.6347095 39.0790245,95.6347095 C38.6368907,95.6347095 38.2196658,95.5469851 37.826312,95.3725934 C37.4329582,95.1960878 37.0914981,94.9614517 36.8019316,94.668685 C36.5113272,94.3738044 36.2809194,94.0292486 36.1075947,93.6371315 C35.9353078,93.2450143 35.8502022,92.8254172 35.8502022,92.3762264 C35.8502022,91.9143525 35.9353078,91.4799586 36.1075947,91.0730446 C36.2809194,90.6661305 36.5113272,90.3173471 36.8019316,90.0224665 C37.0914981,89.7275859 37.4329582,89.4929498 37.826312,89.3185581 C38.2196658,89.1431094 38.6368907,89.0553851 39.0790245,89.0553851 C39.5336128,89.0553851 39.9612164,89.1431094 40.3618353,89.3185581 C40.7614163,89.4929498 41.1101416,89.7275859 41.4069732,90.0224665 C41.7027669,90.3173471 41.9414777,90.6661305 42.1210297,91.0730446 C42.3005817,91.4799586 42.3908766,91.9143525 42.3908766,92.3762264 L42.3908766,92.3762264 Z" id="Fill-2"></path>
                <path d="M54.2247023,120.563215 C52.390781,120.563215 50.9761604,120.035812 49.9829161,118.976778 C48.988634,117.918802 48.4925308,116.458139 48.4925308,114.59479 L48.4925308,102.550134 L46.3389447,102.550134 C46.0628706,102.550134 45.8251977,102.458182 45.6259261,102.277449 C45.4256167,102.094602 45.324943,101.82086 45.324943,101.457279 L45.324943,99.3973432 L48.7416203,98.8297774 L49.8178944,92.9437922 C49.8729016,92.6637085 49.9995221,92.44704 50.1998315,92.2916728 C50.400141,92.1384195 50.6513062,92.0612644 50.9554029,92.0612644 L53.6040543,92.0612644 L53.6040543,98.8498588 L59.1929994,98.8498588 L59.1929994,102.550134 L53.6040543,102.550134 L53.6040543,114.237551 C53.6040543,114.909752 53.7711519,115.435041 54.1022333,115.813418 C54.4333147,116.192852 54.8744106,116.379927 55.4255211,116.379927 C55.744148,116.379927 56.0088056,116.342935 56.2236453,116.26578 C56.4364092,116.188625 56.6232263,116.108299 56.7830587,116.022688 C56.9408154,115.939192 57.0819661,115.858866 57.2065108,115.781711 C57.3310556,115.705612 57.4545624,115.665449 57.5791072,115.665449 C57.7306366,115.665449 57.8551813,115.705612 57.9517035,115.781711 C58.0471878,115.858866 58.1509751,115.975127 58.2620275,116.12838 L59.7939277,118.651247 C59.0497729,119.282228 58.19249,119.757842 57.2283061,120.081259 C56.2610087,120.402563 55.2604993,120.563215 54.2247023,120.563215" id="Fill-3"></path>
                <path d="M62.8950916,99.3127896 L64.3844391,99.3127896 C64.5785213,99.3127896 64.7373158,99.3645787 64.8618606,99.4702706 C64.9864053,99.5759626 65.0683973,99.6911668 65.1099122,99.8169403 L70.3055034,116.317569 C70.3874954,116.639929 70.4611843,116.952777 70.5224188,117.253999 C70.5846912,117.555222 70.6428121,117.852216 70.6988572,118.14604 C70.7673568,117.852216 70.847273,117.555222 70.9365301,117.253999 C71.026825,116.952777 71.1264608,116.639929 71.2375132,116.317569 L76.7423905,99.6700284 C76.8389127,99.3624648 77.0329949,99.2070977 77.3225614,99.2070977 L78.1289886,99.2070977 C78.4330853,99.2070977 78.6333948,99.3624648 78.7299169,99.6700284 L84.1943172,116.317569 C84.2898015,116.639929 84.3769828,116.94855 84.4527475,117.24343 C84.5285123,117.536197 84.6001255,117.837419 84.669663,118.14604 C84.7392004,117.852216 84.8045864,117.555222 84.8658209,117.253999 C84.9291312,116.952777 85.0080095,116.639929 85.1045317,116.317569 L90.3416378,99.8169403 C90.3966451,99.6636869 90.48694,99.5410842 90.6104469,99.4501892 C90.7349916,99.3582372 90.8792559,99.3127896 91.0453156,99.3127896 L92.4744664,99.3127896 L85.6027106,120.227114 L84.1320448,120.227114 C83.8974856,120.227114 83.7386911,120.081259 83.6566991,119.786379 L78.0252013,102.802738 C77.9567017,102.592411 77.8944293,102.381027 77.8394221,102.171757 C77.7844148,101.96143 77.7366727,101.758502 77.6941199,101.562971 C77.6536428,101.772241 77.6079764,101.978341 77.5602343,102.182326 C77.5124921,102.385255 77.4533334,102.592411 77.3837959,102.802738 L71.6723819,119.786379 C71.5883142,120.081259 71.4232924,120.227114 71.1742029,120.227114 L69.7668474,120.227114 L62.8950916,99.3127896" id="Fill-4"></path>
                <path d="M105.578648,118.924989 C106.806452,118.924989 107.879612,118.711492 108.797092,118.283439 C109.715609,117.856444 110.481559,117.24343 111.094942,116.444399 C111.709363,115.645368 112.168103,114.681457 112.471162,113.553724 C112.775258,112.425991 112.927826,111.160858 112.927826,109.759383 C112.927826,108.372704 112.775258,107.110742 112.471162,105.976668 C112.168103,104.841536 111.709363,103.871284 111.094942,103.064854 C110.481559,102.259481 109.715609,101.640127 108.797092,101.204676 C107.879612,100.770282 106.806452,100.552556 105.578648,100.552556 C104.349807,100.552556 103.277684,100.770282 102.360205,101.204676 C101.441687,101.640127 100.676775,102.259481 100.063392,103.064854 C99.4489716,103.871284 98.9871182,104.841536 98.6767943,105.976668 C98.3664703,107.110742 98.2097515,108.372704 98.2097515,109.759383 C98.2097515,111.160858 98.3664703,112.425991 98.6767943,113.553724 C98.9871182,114.681457 99.4489716,115.645368 100.063392,116.444399 C100.676775,117.24343 101.441687,117.856444 102.360205,118.283439 C103.277684,118.711492 104.349807,118.924989 105.578648,118.924989 L105.578648,118.924989 Z M105.578648,98.9766892 C107.055541,98.9766892 108.376753,99.2324637 109.542285,99.7440128 C110.708854,100.255562 111.692757,100.980609 112.492957,101.92021 C113.292119,102.858755 113.902388,103.989659 114.324802,105.313979 C114.745141,106.638299 114.955829,108.121157 114.955829,109.759383 C114.955829,111.399722 114.745141,112.877296 114.324802,114.195274 C113.902388,115.512196 113.292119,116.639929 112.492957,117.579531 C111.692757,118.518075 110.708854,119.238894 109.542285,119.743045 C108.376753,120.24931 107.055541,120.500856 105.578648,120.500856 C104.102793,120.500856 102.781581,120.24931 101.615012,119.743045 C100.449481,119.238894 99.462464,118.518075 98.6549989,117.579531 C97.8475339,116.639929 97.2331132,115.512196 96.8127747,114.195274 C96.3913983,112.877296 96.181748,111.399722 96.181748,109.759383 C96.181748,108.121157 96.3913983,106.638299 96.8127747,105.313979 C97.2331132,103.989659 97.8475339,102.858755 98.6549989,101.92021 C99.462464,100.980609 100.449481,100.255562 101.615012,99.7440128 C102.781581,99.2324637 104.102793,98.9766892 105.578648,98.9766892 L105.578648,98.9766892 Z" id="Fill-5"></path>
                <path d="M118.648581,120.227114 L118.648581,99.3127896 L119.706173,99.3127896 C119.939694,99.3127896 120.104716,99.3624648 120.202276,99.4597014 C120.29776,99.557995 120.360033,99.7260452 120.388055,99.964909 L120.533358,104.357467 C120.849909,103.502419 121.213164,102.742494 121.62001,102.077691 C122.025819,101.411832 122.495975,100.847437 123.028404,100.384506 C123.558757,99.9226322 124.151382,99.5685641 124.807318,99.3233588 C125.462215,99.0781535 126.189764,98.9555508 126.99204,98.9555508 C127.418606,98.9555508 127.839982,98.9946568 128.254093,99.0718119 C128.668205,99.1489671 129.033536,99.2853097 129.351125,99.4808398 L129.185065,100.868575 C129.115528,101.092642 128.984756,101.204676 128.791711,101.204676 C128.625652,101.204676 128.374487,101.156057 128.03614,101.056707 C127.697793,100.95947 127.253584,100.910852 126.701436,100.910852 C125.901236,100.910852 125.190293,101.036625 124.569645,101.289229 C123.947959,101.540776 123.395811,101.909641 122.914238,102.391596 C122.430589,102.875666 122.006099,103.479167 121.63973,104.199986 C121.274399,104.921862 120.939166,105.752601 120.637145,106.691145 L120.637145,120.227114 L118.648581,120.227114" id="Fill-6"></path>
                <path d="M135.032441,89.6440893 L135.032441,108.289208 L135.98417,108.289208 C136.177214,108.289208 136.35988,108.260671 136.533205,108.204654 C136.704454,108.148637 136.894384,108.015465 137.102997,107.805138 L145.361351,99.8380786 C145.499388,99.6700284 145.650917,99.5410842 145.815939,99.4501892 C145.981999,99.3582372 146.189573,99.3127896 146.436587,99.3127896 L148.176062,99.3127896 L139.089485,108.077824 C138.840396,108.372704 138.571587,108.603113 138.283058,108.771163 C138.503087,108.884253 138.69198,109.014254 138.850775,109.161166 C139.009569,109.307021 139.16525,109.479299 139.316779,109.675886 L148.858982,120.227114 L147.141302,120.227114 C146.94722,120.227114 146.77182,120.195407 146.613025,120.133048 C146.455269,120.069633 146.305815,119.940689 146.167778,119.743045 L137.51607,110.328005 C137.405018,110.201175 137.299155,110.095483 137.195367,110.011987 C137.092618,109.927433 136.984679,109.861904 136.874665,109.813286 C136.763612,109.76361 136.636992,109.728732 136.49169,109.707594 C136.347425,109.686455 136.169949,109.675886 135.963412,109.675886 L135.032441,109.675886 L135.032441,120.227114 L133.044914,120.227114 L133.044914,89.6440893 L135.032441,89.6440893" id="Fill-7"></path>
                <path d="M164.733246,101.835657 C164.622194,102.032244 164.463399,102.130537 164.256863,102.130537 C164.105333,102.130537 163.912289,102.042813 163.67773,101.868421 C163.442133,101.691916 163.129733,101.495329 162.735341,101.27866 C162.341987,101.060935 161.856263,100.865404 161.276092,100.689956 C160.695921,100.515564 159.993281,100.42784 159.165059,100.42784 C158.420904,100.42784 157.74006,100.535646 157.126677,100.753371 C156.512256,100.97004 155.987092,101.260692 155.552224,101.62533 C155.118393,101.991024 154.784198,102.412735 154.549639,102.897861 C154.314041,103.379816 154.1978,103.888194 154.1978,104.421939 C154.1978,105.0804 154.362821,105.626827 154.693903,106.060164 C155.024984,106.495615 155.456739,106.867651 155.987092,107.175214 C156.519521,107.482778 157.12979,107.750179 157.818938,107.974246 C158.509123,108.198313 159.209687,108.422379 159.92063,108.646446 C160.630535,108.870513 161.331099,109.119946 162.021285,109.392632 C162.71147,109.666374 163.321739,110.004588 163.85313,110.411502 C164.385559,110.818416 164.816276,111.316225 165.147358,111.903873 C165.478439,112.493634 165.643461,113.208111 165.643461,114.048362 C165.643461,114.95837 165.484666,115.807077 165.168115,116.591311 C164.849488,117.376602 164.385559,118.056201 163.771138,118.630109 C163.156718,119.205073 162.401146,119.660605 161.504424,119.996706 C160.607702,120.332806 159.57917,120.500856 158.420904,120.500856 C156.970996,120.500856 155.721397,120.26622 154.674183,119.796948 C153.624894,119.327676 152.686657,118.713605 151.858434,117.957908 L152.314061,117.24343 C152.38256,117.131397 152.462476,117.046843 152.551733,116.990827 C152.642028,116.93481 152.762422,116.90733 152.913951,116.90733 C153.093503,116.90733 153.310418,117.019363 153.566773,117.24343 C153.82209,117.467497 154.16355,117.708475 154.590116,117.968477 C155.018757,118.227422 155.545996,118.470514 156.174947,118.693524 C156.801822,118.917591 157.578151,119.029624 158.502896,119.029624 C159.372633,119.029624 160.138584,118.907022 160.799709,118.661816 C161.461871,118.416611 162.015058,118.083681 162.456154,117.663027 C162.897249,117.24343 163.232482,116.749849 163.460814,116.181226 C163.688109,115.61366 163.801237,115.014387 163.801237,114.384463 C163.801237,113.683725 163.636215,113.102419 163.305133,112.639489 C162.973014,112.177615 162.539183,111.785498 162.000527,111.46208 C161.461871,111.140777 160.85264,110.868091 160.168682,110.641911 C159.486799,110.419957 158.786235,110.193777 158.068027,109.970767 C157.350857,109.7467 156.650293,109.500437 155.967373,109.234094 C155.284452,108.968807 154.674183,108.632706 154.135527,108.225792 C153.597909,107.818878 153.16304,107.326354 152.831959,106.743991 C152.500878,106.162685 152.33378,105.437639 152.33378,104.567794 C152.33378,103.825836 152.492575,103.110302 152.811202,102.424361 C153.127753,101.73842 153.579227,101.135976 154.165626,100.617028 C154.753062,100.098081 155.46608,99.6848253 156.307795,99.3772617 C157.150548,99.0686412 158.09605,98.9143309 159.144301,98.9143309 C160.400127,98.9143309 161.514803,99.097178 162.48729,99.4607584 C163.460814,99.8253956 164.347158,100.384506 165.147358,101.142317 L164.733246,101.835657" id="Fill-8"></path>
                <path d="M79.5467228,1.46740252 L55.4348619,25.8494803 L71.8405173,42.5540943 L78.6946292,35.5752543 L69.1835629,25.8896433 L83.0111422,11.8072468 L104.279232,33.4688136 L111.075223,26.5481042 L86.4589557,1.48008555 C84.5565348,-0.454077282 81.4574466,-0.461475719 79.5467228,1.46740252" id="Fill-9"></path>
                <path d="M145.69347,19.795445 L127.774596,1.55618376 C125.86491,-0.389605188 122.76167,-0.388548268 120.850947,1.55512684 L107.820454,14.826866 L114.615407,21.7454616 L124.31329,11.8685481 L135.562794,23.3244994 L101.11372,58.4057742 L100.466087,57.8656883 L94.019859,51.3022177 L87.2259437,58.2218702 L97.5922172,68.7794398 C99.502941,70.7210011 102.606181,70.7241719 104.516904,68.7794398 L145.69347,26.8482693 C147.60108,24.9024804 147.60108,21.7391201 145.69347,19.795445" id="Fill-10"></path>
                <path d="M92.6695865,30.1194354 L64.907527,58.4047172 L30.458453,23.3244994 L41.7079563,11.8685481 L51.2190226,21.5541591 L58.0139759,14.6355636 L45.1703,1.55618376 C44.215457,0.584874665 42.9627445,0.0986916583 41.7079563,0.0986916583 C40.454206,0.0986916583 39.2014935,0.584874665 38.2456126,1.55618376 L20.3111707,19.7616235 C19.3833124,20.7043958 18.872679,21.9568455 18.8706032,23.290678 C18.8706032,24.6255674 19.3801988,25.8780171 20.3070192,26.8207894 L61.4514106,68.6737479 C63.356945,70.6110815 66.4612226,70.6195368 68.3677949,68.6790325 L99.5143576,37.0665678 L92.6695865,30.1194354" id="Fill-11"></path>
            </g>
        </g>
    </g>
</svg>