<?xml version="1.0" encoding="UTF-8" standalone="no"?>
<svg width="185px" height="44px" viewBox="0 0 185 44" version="1.1" xmlns="http://www.w3.org/2000/svg" xmlns:xlink="http://www.w3.org/1999/xlink">
    <!-- Generator: Sketch 40.1 (33804) - http://www.bohemiancoding.com/sketch -->
    <title>MAVIN</title>
    <desc>Created with Sketch.</desc>
    <defs></defs>
    <g id="Hompage" stroke="none" stroke-width="1" fill="none" fill-rule="evenodd">
        <g id="Portfolio" transform="translate(-124.000000, -239.000000)" fill="#454560">
            <path d="M191.35251,267.158415 L199.471193,249.483512 L207.588992,267.158415 L191.35251,267.158415 Z M214.802551,282.864098 L222.68677,282.864098 L203.41286,239 L200.991235,239 C196.498354,239 194.660679,241.351134 193.158333,245.301146 C191.655103,249.251159 176.253848,282.864098 176.253848,282.864098 L184.138951,282.864098 L187.671852,275.1715 L211.26965,275.1715 L214.802551,282.864098 Z M232.856358,272.380585 L248.189486,239 L256.073704,239 C256.073704,239 240.672449,272.612939 239.170103,276.562951 C237.666872,280.512963 235.829198,282.864098 231.337202,282.864098 L228.914691,282.864098 L209.640782,239 L217.525885,239 L232.856358,272.380585 Z M301.599733,239 L308.984053,239 L308.984053,276.415171 C308.984053,278.890049 307.606461,282.864098 303.356893,282.864098 L300.973313,282.864098 L276.193457,252.855756 L276.193457,282.864098 L268.809136,282.864098 L268.809136,239 L276.193457,239 L301.599733,269.888793 L301.599733,239 Z M264.715288,239 L264.715288,282.864098 L257.331852,282.864098 L257.331852,246.573305 C257.331852,241.722366 260.806358,239 264.715288,239 L264.715288,239 Z M131.383436,282.864098 L124,282.864098 L124,247.14039 C124,242.056207 127.109979,239 130.408416,239 L133.348519,239 L148.717922,267.493146 L164.55714,239.103268 L173.373909,239 L173.373909,282.864098 L165.990473,282.864098 L165.990473,250.216183 L152.00751,276.017232 C152.00751,276.017232 150.782099,278.392402 148.616173,278.392402 C146.451132,278.392402 145.337202,276.068866 145.337202,276.068866 L131.383436,250.216183 L131.383436,282.864098 Z" id="MAVIN"></path>
        </g>
    </g>
</svg>