<?xml version="1.0" encoding="UTF-8" standalone="no"?>
<svg width="161px" height="119px" viewBox="0 0 161 119" version="1.1" xmlns="http://www.w3.org/2000/svg" xmlns:xlink="http://www.w3.org/1999/xlink">
    <!-- Generator: Sketch 40.1 (33804) - http://www.bohemiancoding.com/sketch -->
    <title>HYPERTRACK</title>
    <desc>Created with Sketch.</desc>
    <defs></defs>
    <g id="Hompage" stroke="none" stroke-width="1" fill="none" fill-rule="evenodd">
        <g id="Portfolio" transform="translate(-570.000000, -546.000000)" fill="#454560">
            <g id="HYPERTRACK" transform="translate(569.000000, 546.000000)">
                <g id="Group-3" transform="translate(79.534349, 31.679584) scale(1, -1) translate(-79.534349, -31.679584) translate(41.034349, 0.179584)">
                    <path d="M64.7116658,58.465975 L53.4937409,54.5510076 L53.4381149,27.4601721 C53.4195729,12.5574425 53.4566569,0.369336544 53.530825,0.369336544 C53.6235351,0.369336544 58.8523861,2.38222071 65.1752164,4.85677556 L76.6712717,9.34421457 L76.7268978,35.8810453 L76.7639818,62.417876 L76.3560573,62.3994092 C76.115011,62.3809424 70.88616,60.6081269 64.7116658,58.465975 L64.7116658,58.465975 Z M67.4929695,46.1670681 C67.6969318,45.963933 67.86381,45.7053974 67.86381,45.6130632 C67.86381,45.5022623 67.2704652,44.4865868 66.5473263,43.3601103 C65.8427293,42.2336339 65.2864686,41.2179584 65.3235526,41.1071574 C65.3791787,40.9778896 66.4175321,40.405418 67.6413057,39.8144795 C69.7921806,38.7618703 70.3484413,38.3001997 70.144479,37.7092612 C70.088853,37.5799934 69.9034327,37.3953251 69.6994704,37.2845242 C69.402798,37.1367895 68.8836214,37.3214578 66.9367088,38.2263323 C65.620225,38.8542045 64.3964514,39.334342 64.2295732,39.2974083 C64.062695,39.2604747 63.339556,38.3371333 62.616417,37.2106568 C61.3184753,35.160839 61.095971,34.9023034 60.6880465,34.9023034 C60.3728321,34.9023034 59.7053192,35.5671092 59.7053192,35.8810453 C59.7053192,36.0103131 60.2430379,36.9890549 60.9290928,38.0231972 C61.5966057,39.0758064 62.1157824,40.0545482 62.0786983,40.2207497 C62.0416143,40.3869511 61.040345,40.9963564 59.7980293,41.6057617 C58.5742557,42.1967002 57.5173603,42.7876387 57.4246502,42.9169065 C57.2021459,43.2493094 57.3690241,43.8033142 57.7584066,44.0618497 C58.092163,44.2834517 58.3888354,44.1726507 60.4470002,43.2123757 C61.7263999,42.6029704 62.9501735,42.1043661 63.1726778,42.1043661 C63.4137241,42.1043661 63.6733125,42.2705675 63.8031066,42.5106363 C63.9143588,42.7322382 64.5447876,43.7294469 65.1937585,44.7266555 C66.4546161,46.6656724 66.7883726,46.8688075 67.4929695,46.1670681 L67.4929695,46.1670681 Z M69.0504996,31.9845447 C69.1802938,31.7075423 69.4769661,30.9134688 69.7180125,30.2117293 L70.125937,28.9559851 L69.7550965,28.5866485 C69.4955082,28.3096461 69.2544619,28.2357788 68.9207054,28.328113 C68.5127809,28.4204471 68.3644447,28.6974495 67.826726,30.3040635 L67.2148391,32.169213 L67.6413057,32.5200827 C68.1790244,32.9448198 68.6611171,32.7601515 69.0504996,31.9845447 L69.0504996,31.9845447 Z M70.6451137,24.0068754 C70.9603281,23.6929393 71.0159542,23.3974701 71.0159542,21.9755244 C71.0159542,20.5535787 70.9603281,20.2581095 70.6451137,19.9441734 C70.4411514,19.7410383 70.2001051,19.5748369 70.088853,19.5748369 C69.8292646,19.5748369 69.1617517,20.2581095 69.1432097,20.5535787 C68.9763315,23.6929393 69.5696763,25.0779514 70.6451137,24.0068754 L70.6451137,24.0068754 Z M60.0761597,17.5434859 C61.1145131,16.5832108 61.2628493,15.9922724 60.5582523,15.6783363 C60.0205336,15.4198007 59.7424032,15.5675353 58.2404992,16.8048128 C56.9240155,17.8943556 56.7015112,18.3929599 57.294856,18.8730974 C57.7027805,19.1870335 57.7213226,19.1870335 58.4259195,18.7992301 C58.815302,18.5776282 59.556983,18.0236234 60.0761597,17.5434859 L60.0761597,17.5434859 Z M68.7167431,15.604469 C68.9948735,15.179732 68.9948735,15.1058647 68.7352852,14.6995945 C68.3459026,14.108656 66.6585784,13.2961156 65.8056453,13.2961156 C64.6931238,13.2961156 64.118321,14.1825233 64.860002,14.8103954 C65.0268802,14.95813 65.5089729,15.1427983 65.9168974,15.1981988 C66.324822,15.2720661 66.8625407,15.4752012 67.122129,15.6783363 C67.7710999,16.1954075 68.3459026,16.1584738 68.7167431,15.604469 L68.7167431,15.604469 Z" id="Shape"></path>
                    <path d="M26.5150952,35.7333107 C26.5150952,21.2553181 26.5521792,9.41808188 26.5892633,9.41808188 C26.6263473,9.41808188 32.0220765,7.29439675 38.5674112,4.70904094 C45.1312879,2.12368513 50.6197271,0 50.7680633,0 C51.0091097,0 51.0276517,3.30556207 50.8978575,26.9061673 C50.8236894,41.7165627 50.7124373,53.9046687 50.6197271,53.978536 C50.4157649,54.2001379 27.3124022,62.0485395 26.8673936,62.0485395 C26.5150952,62.0485395 26.5150952,61.6422693 26.5150952,35.7333107 L26.5150952,35.7333107 Z M39.8653529,26.5922312 C40.699744,25.761224 40.1991093,25.2626196 38.0667765,24.8563494 C36.2311161,24.5054797 35.8417335,24.579347 35.6748553,25.2441528 C35.4894351,25.9089586 36.0456958,26.3521624 37.4548897,26.6660985 C39.1236719,27.0169682 39.4388863,27.0169682 39.8653529,26.5922312 L39.8653529,26.5922312 Z M46.4477716,26.4075629 C48.3761422,25.9274254 49.043655,25.225686 48.246348,24.5054797 C47.9125915,24.1915437 47.5602931,24.2469441 45.0014937,24.9486836 C44.0929345,25.1887523 43.722094,25.8720249 44.2227287,26.4075629 C44.6306532,26.8507668 44.6121112,26.8507668 46.4477716,26.4075629 L46.4477716,26.4075629 Z M32.2631228,24.3762119 C32.9677197,23.6744725 32.7822995,23.4159369 30.6499667,22.1786595 C29.2407728,21.3476523 28.8143062,21.3476523 28.3692976,22.1417258 C28.1097093,22.6403302 28.5361758,23.083534 30.13079,23.9884086 C31.632694,24.8563494 31.7624881,24.8748163 32.2631228,24.3762119 L32.2631228,24.3762119 Z" id="Shape"></path>
                    <path d="M11.7371016,57.930437 L0,54.0154696 L0,27.0169682 C0,0.738673089 0.0185420246,0 0.352298467,0 C0.537718713,0 5.93344787,2.03135099 12.3304464,4.52437267 C18.7274448,7.01739434 23.9933798,9.04874534 24.0304639,9.04874534 C24.0675479,9.04874534 24.104632,20.9413821 24.104632,35.4563083 C24.104632,60.497326 24.0860899,61.8638712 23.7894176,61.8454044 C23.6039973,61.8454044 18.1711841,60.0725889 11.7371016,57.930437 L11.7371016,57.930437 Z M12.9794172,40.5716194 C13.2390056,40.0914819 13.2390056,40.0360814 12.8681651,39.7221454 C12.4231565,39.3712756 9.66039481,38.8726713 9.08559205,39.0573396 C8.56641536,39.223541 8.39953714,39.9991478 8.80746168,40.4423516 C9.15976015,40.830155 10.6245801,41.1625579 11.8668957,41.1256242 C12.5714927,41.0886906 12.7383709,41.0148233 12.9794172,40.5716194 L12.9794172,40.5716194 Z M18.2638942,37.8015953 C18.6718188,36.4535169 18.6347347,35.1793059 18.1711841,34.7176352 C17.9672218,34.5145001 17.7261755,34.3482986 17.6149234,34.3482986 C17.1699148,34.3482986 16.6878221,35.1054385 16.6878221,35.8256448 C16.6878221,36.2134482 16.595112,36.9890549 16.4838599,37.5061261 C16.2798976,38.4110006 16.2984396,38.5033348 16.6692801,38.798804 C17.318251,39.3158752 17.9301378,38.9280718 18.2638942,37.8015953 L18.2638942,37.8015953 Z M16.5024019,30.2855966 C16.7063642,30.0824615 16.8732424,29.8423928 16.8732424,29.7315918 C16.8732424,29.288388 15.4084224,26.4444966 15.11175,26.3336956 C14.6296574,26.1490273 14.1846488,26.3521624 13.9621445,26.8323 C13.7952663,27.1831697 13.9065184,27.5525062 14.5740313,28.9559851 C15.4269645,30.8026678 15.7607209,31.0242697 16.5024019,30.2855966 L16.5024019,30.2855966 Z M14.6481994,22.3817946 C15.0190399,22.0863254 15.056124,21.8831903 15.056124,20.3873773 C15.056124,19.4825027 15.0375819,18.6514955 15.0375819,18.5222277 C15.0190399,18.1528912 14.314443,17.8758887 13.9250605,18.0790238 C13.0350433,18.5591614 12.793997,21.2553181 13.55422,22.23406 C13.9992286,22.8065316 14.1104807,22.8249984 14.6481994,22.3817946 L14.6481994,22.3817946 Z M21.9537571,18.7253628 C22.6954381,18.0051565 22.2318875,17.5065522 20.1366387,16.7124786 C18.6903608,16.1769406 18.1526421,16.2138743 17.8374277,16.8786801 C17.5407553,17.525019 17.8559697,17.8389551 19.4691258,18.4483604 C21.100824,19.0762325 21.5643746,19.131633 21.9537571,18.7253628 L21.9537571,18.7253628 Z" id="Shape"></path>
                </g>
                <g id="Group-4" transform="translate(81.277097, 105.495461) scale(1, -1) translate(-81.277097, -105.495461) translate(0.777097, 92.495461)">
                    <path d="M146.081579,14.971014 L146.081579,4.84856703 L148.293671,4.84856703 L150.505763,4.84856703 L150.505763,7.12314041 L150.505763,9.39771378 L151.151455,10.0646044 L151.797146,10.731495 L152.61024,9.44534883 C153.064615,8.74273192 153.925538,7.4327682 154.511443,6.53961111 L155.587596,4.90811084 L158.074705,4.87238455 C160.430284,4.84856703 160.549856,4.86047579 160.549856,5.06292473 C160.549856,5.1939211 159.282387,7.23031926 157.727944,9.60016272 L154.91799,13.9111342 L157.668158,16.7454194 C159.186729,18.3054671 160.430284,19.6392484 160.430284,19.7226097 C160.430284,19.8178798 159.688934,19.8536061 157.823602,19.8536061 L155.216921,19.8536061 L152.968957,17.41231 C151.73736,16.06662 150.673165,14.9948315 150.613378,15.0424666 C150.553592,15.0781928 150.505763,17.1979523 150.505763,20.10369 L150.505763,25.0934609 L148.293671,25.0934609 L146.081579,25.0934609 L146.081579,14.971014 L146.081579,14.971014 Z" id="Shape"></path>
                    <path d="M0.32265406,14.5542073 L0.32265406,4.84856703 L2.53474603,4.84856703 L4.746838,4.84856703 L4.77075251,8.69509687 L4.80662427,12.529718 L8.44162945,12.5654442 C11.0243963,12.5892618 12.1244637,12.5535355 12.2320789,12.4582654 C12.3636087,12.3510865 12.3994805,11.6008346 12.3994805,8.58791802 L12.3994805,4.84856703 L14.6115725,4.84856703 L16.8236644,4.84856703 L16.8236644,14.5542073 L16.8236644,24.2598477 L14.6115725,24.2598477 L12.3994805,24.2598477 L12.375566,20.5443142 L12.3396942,16.816872 L8.70468904,16.7811457 C6.1219222,16.7573282 5.02185484,16.7930544 4.91423956,16.8883245 C4.78270976,16.9955034 4.746838,17.7219378 4.746838,20.6395843 L4.746838,24.2598477 L2.53474603,24.2598477 L0.32265406,24.2598477 L0.32265406,14.5542073 L0.32265406,14.5542073 Z" id="Shape"></path>
                    <path d="M83.5451412,22.2353583 L83.5451412,20.2108689 L86.3311813,20.2108689 C88.34,20.2108689 89.1530932,20.1751426 89.2607085,20.0679638 C89.3683238,19.9607849 89.4041956,18.0911094 89.4041956,12.3868128 L89.4041956,4.84856703 L91.6162875,4.84856703 L93.8283795,4.84856703 L93.852294,12.5059004 L93.8881658,20.1513251 L96.8535647,20.1870514 L99.8070065,20.2108689 L99.8070065,22.2353583 L99.8070065,24.2598477 L91.6760738,24.2598477 L83.5451412,24.2598477 L83.5451412,22.2353583 L83.5451412,22.2353583 Z" id="Shape"></path>
                    <path d="M44.8036385,19.9369674 C43.930759,19.7345184 43.2133238,19.3415293 42.5317603,18.710365 C42.2208717,18.4245547 41.9338976,18.2221058 41.8980259,18.2697408 C41.8501968,18.3054671 41.8143251,18.6865475 41.8143251,19.1033541 L41.8143251,19.8536061 L39.6022331,19.8536061 L37.3901411,19.8536061 L37.3901411,10.2075095 L37.3901411,0.561413025 L39.6022331,0.561413025 L41.8143251,0.561413025 L41.8143251,3.4790595 C41.8143251,5.08674225 41.8621541,6.39670598 41.9099831,6.39670598 C41.9697694,6.39670598 42.1610854,6.22998332 42.3524015,6.03944314 C43.5481269,4.80093199 45.6406463,4.32458154 47.8527383,4.78902322 C50.1365738,5.26537367 51.9540764,7.00405279 52.7312979,9.43344006 C52.9584857,10.1717833 52.9943575,10.5290461 52.9943575,12.4106303 C52.9943575,14.2922146 52.9584857,14.6613862 52.7312979,15.3878206 C52.1095207,17.3527662 50.4235479,19.1271716 48.6180025,19.7345184 C47.6614222,20.056055 45.7602189,20.1632338 44.8036385,19.9369674 L44.8036385,19.9369674 Z M46.5374404,15.9356236 C47.4342344,15.5069082 47.792952,15.1258279 48.2951567,14.0778569 C48.641917,13.3514225 48.6897461,13.125156 48.6897461,12.2915427 C48.6897461,11.4936557 48.6299598,11.2197542 48.354943,10.6243162 C47.4461917,8.68318811 45.6526036,7.93293616 43.9068445,8.76654944 C42.8067771,9.27862617 42.1012992,10.2670533 41.8023678,11.7199222 C41.4556075,13.37524 42.4121878,15.3044593 43.9068445,15.9951674 C44.7558095,16.4000653 45.6167318,16.3762478 46.5374404,15.9356236 L46.5374404,15.9356236 Z" id="Shape"></path>
                    <path d="M61.2448627,19.9846024 C58.4588225,19.3772556 56.3782603,17.4004013 55.6129961,14.6137512 C55.3140647,13.5300539 55.3140647,10.933944 55.6129961,9.8502467 C56.222816,7.6471259 58.0044468,5.75363288 60.1687098,5.01528969 C60.9578886,4.75329694 61.400307,4.68184437 62.6319041,4.63420933 C64.5450647,4.57466552 65.5733886,4.74138818 66.7810712,5.32491748 C67.7256943,5.7774504 69.316009,7.08741412 69.316009,7.40895067 C69.316009,7.58758209 67.0202163,9.61207148 66.816943,9.61207148 C66.7451994,9.61207148 66.4343108,9.4215313 66.1353795,9.19526484 C65.358158,8.59982679 64.9874831,8.43310413 64.1265608,8.25447271 C62.392759,7.88530112 60.8024443,8.59982679 60.0491373,10.0646044 C59.6665051,10.8267651 59.4751891,10.8029476 65.0113976,10.8029476 L70.0334443,10.8029476 L70.0334443,11.8628273 C70.0334443,14.7923826 69.3279663,16.7692369 67.7256943,18.2697408 C66.3506101,19.5677958 65.2864145,19.9726937 63.1580233,20.0441462 C62.3688445,20.0679638 61.5079222,20.0322375 61.2448627,19.9846024 L61.2448627,19.9846024 Z M63.5884844,16.3405215 C64.3537487,16.06662 64.8081243,15.6617221 65.2266282,14.8757439 C65.9201489,13.5895977 66.063636,13.6610503 62.7395194,13.6610503 C59.4393173,13.6610503 59.5349753,13.625324 60.03718,14.673295 C60.7665725,16.1499813 62.201443,16.8287807 63.5884844,16.3405215 L63.5884844,16.3405215 Z" id="Shape"></path>
                    <path d="M80.4003834,19.9607849 C79.6231619,19.7821535 79.0492137,19.4129819 78.355693,18.6508212 C77.9850181,18.2459233 77.6860868,17.8648429 77.6860868,17.8052991 C77.6860868,17.7457553 77.6382577,17.7338466 77.5665142,17.7695729 C77.5067279,17.8052991 77.4469417,18.2935583 77.4469417,18.8532701 L77.4469417,19.8536061 L75.2348497,19.8536061 L73.0227577,19.8536061 L73.0227577,12.3510865 L73.0227577,4.84856703 L75.2228925,4.84856703 L77.4349844,4.84856703 L77.4708562,8.51646546 C77.5186852,12.7083494 77.5784715,12.9941596 78.5948381,14.1254919 C79.252487,14.8519264 80.0894948,15.2806418 81.2493484,15.4592732 L82.1102707,15.6021783 L82.1102707,17.8410254 L82.1102707,20.0917813 L81.4884935,20.0798725 C81.1417331,20.0679638 80.6514857,20.0203287 80.4003834,19.9607849 L80.4003834,19.9607849 Z" id="Shape"></path>
                    <path d="M109.815228,19.9607849 C109.038006,19.7821535 108.464058,19.4129819 107.770538,18.6508212 C107.399863,18.2459233 107.100931,17.8648429 107.100931,17.8052991 C107.100931,17.7457553 107.053102,17.7338466 106.981359,17.7695729 C106.921573,17.8052991 106.861786,18.2935583 106.861786,18.8532701 L106.861786,19.8536061 L104.649694,19.8536061 L102.437602,19.8536061 L102.437602,12.3510865 L102.437602,4.84856703 L104.637737,4.84856703 L106.849829,4.84856703 L106.885701,8.51646546 C106.93353,12.7083494 106.993316,12.9941596 108.009683,14.1254919 C108.667332,14.8519264 109.504339,15.2806418 110.664193,15.4592732 L111.525115,15.6021783 L111.525115,17.8410254 L111.525115,20.0917813 L110.903338,20.0798725 C110.556578,20.0679638 110.06633,20.0203287 109.815228,19.9607849 L109.815228,19.9607849 Z" id="Shape"></path>
                    <path d="M135.834212,19.9607849 C131.57743,19.2462592 128.851176,15.0067403 129.759927,10.4695023 C130.250175,8.05202377 132.115506,5.89653801 134.483043,5.02719845 C135.260264,4.72947942 135.595067,4.68184437 137.053852,4.63420933 C139.026799,4.57466552 139.947508,4.74138818 141.191062,5.39637004 C142.075899,5.86081173 143.450983,7.02787032 143.450983,7.31368058 C143.450983,7.492312 141.191062,9.96933432 141.023661,9.96933432 C140.975832,9.96933432 140.664943,9.76688538 140.342097,9.50489263 C139.481175,8.82609325 138.715911,8.49264794 137.866946,8.44501289 C135.941828,8.31401652 134.423256,9.60016272 133.992795,11.731831 C133.514505,14.0540394 135.559196,16.4953354 137.747373,16.2333427 C138.524595,16.1499813 139.445303,15.7093572 140.126867,15.1020104 C140.449712,14.8162001 140.748644,14.6137512 140.80843,14.6375687 C141.011703,14.7090212 143.450983,17.3765837 143.450983,17.5313976 C143.450983,17.912478 141.621523,19.2819855 140.652986,19.6273396 C139.385517,20.0679638 137.340826,20.2108689 135.834212,19.9607849 L135.834212,19.9607849 Z" id="Shape"></path>
                    <path d="M118.34075,19.9012411 C116.917837,19.6511571 116.463461,19.5439783 115.494924,19.2343505 C114.885104,19.0438103 114.358984,18.8175438 114.323113,18.7222737 C114.251369,18.5317336 115.195992,15.6021783 115.363394,15.4949995 C115.435137,15.4592732 116.009085,15.5783608 116.64282,15.7569922 C117.623315,16.0428025 118.017904,16.1023463 119.237544,16.1023463 C120.612628,16.1023463 120.696329,16.0904375 121.318106,15.7450835 C121.880097,15.4354557 122.011627,15.2925505 122.322516,14.6375687 C122.537746,14.173127 122.633404,13.8396817 122.561661,13.7682291 C122.501874,13.7086853 122.131199,13.7325028 121.628995,13.8396817 C120.51697,14.0659481 117.802674,14.0659481 116.810221,13.8396817 C115.184035,13.4586013 113.844823,12.4344479 113.366532,11.2197542 C113.187174,10.7434038 113.139345,10.3146884 113.139345,9.13572104 C113.139345,7.492312 113.258917,7.12314041 114.060053,6.21807456 C114.980762,5.17010358 115.985171,4.75329694 117.802674,4.64611809 C119.56039,4.550848 121.090918,4.9795634 122.131199,5.84890297 C122.334473,6.01562562 122.525789,6.12280447 122.573618,6.07516943 C122.60949,6.03944314 122.645361,5.74172412 122.645361,5.42018756 L122.645361,4.84856703 L124.737881,4.84856703 L126.8304,4.84856703 L126.8304,9.70734157 C126.8304,12.4225391 126.770614,14.8876527 126.710828,15.3044593 C126.435811,16.9597771 125.74229,18.1030182 124.52265,18.9485402 C123.518241,19.6392484 122.561661,19.8655148 120.433269,19.9131499 C119.452775,19.9369674 118.508152,19.9369674 118.34075,19.9012411 L118.34075,19.9012411 Z M121.25832,11.2197542 C122.394259,10.981579 122.645361,10.7910388 122.645361,10.2075095 C122.645361,9.60016272 122.501874,9.25480865 122.059456,8.74273192 C121.485508,8.08775006 120.720244,7.79003103 119.656048,7.77812227 C118.878826,7.76621351 118.675553,7.81384855 118.197263,8.08775006 C117.145025,8.70700564 117.013495,9.87406423 117.922246,10.6600425 C118.699468,11.3507506 119.787578,11.529382 121.25832,11.2197542 L121.25832,11.2197542 Z" id="Shape"></path>
                    <path d="M19.5738328,19.6511571 C19.5738328,19.5320695 20.8652163,16.1737989 22.4316165,12.1724551 C25.0382979,5.55118394 25.2654857,4.89620208 25.1219986,4.65802685 C24.7513238,4.09831508 23.914316,3.99113623 23.0533937,4.37221659 C22.1685569,4.77711446 22.1446424,4.7652057 21.4152499,3.21706676 C21.0565323,2.44299728 20.7695582,1.71656285 20.7934727,1.58556648 C20.8891308,0.93058462 22.8620777,0.382781608 24.8350245,0.466142936 C25.9231346,0.51377798 26.222066,0.561413025 26.7840569,0.847223292 C27.5851929,1.24021241 28.2428419,1.94282932 28.8167901,3.03843534 C29.2711657,3.91968366 35.1182629,19.3177118 35.1182629,19.6511571 C35.1182629,19.8297885 34.9149896,19.8536061 32.8702992,19.8536061 L30.6223354,19.8536061 L29.0678924,15.0424666 C28.2189274,12.3987216 27.5134494,10.2432358 27.4895349,10.2670533 C27.4775777,10.2789621 26.7362279,12.4344479 25.8633484,15.0424666 L24.2730336,19.7940622 L21.9294118,19.8297885 C19.7412344,19.8536061 19.5738328,19.8416973 19.5738328,19.6511571 L19.5738328,19.6511571 Z" id="Shape"></path>
                </g>
            </g>
        </g>
    </g>
</svg>