<?xml version="1.0" encoding="UTF-8" standalone="no"?>
<svg width="211px" height="112px" viewBox="0 0 211 112" version="1.1" xmlns="http://www.w3.org/2000/svg" xmlns:xlink="http://www.w3.org/1999/xlink">
    <!-- Generator: Sketch 40.1 (33804) - http://www.bohemiancoding.com/sketch -->
    <title>WEALTHY</title>
    <desc>Created with Sketch.</desc>
    <defs></defs>
    <g id="Hompage" stroke="none" stroke-width="1" fill="none" fill-rule="evenodd">
        <g id="Portfolio" transform="translate(-111.000000, -550.000000)" fill="#454560">
            <g id="WEALTHY" transform="translate(111.000000, 549.000000)">
                <path d="M9.3373676,69.6458169 L0.920936095,93.7327123 C0.743403434,94.2124176 0.565870772,94.9909481 0.565870772,95.5899971 C0.565870772,97.3279383 1.92895271,98.9456035 4.06257251,98.9456035 C5.84066587,98.9456035 7.02621514,97.7475056 7.55927425,96.0701686 L13.6046072,76.8964069 L19.708964,96.0701686 C20.2424842,97.7475056 21.5465423,98.9456035 23.3836595,98.9456035 L23.7986709,98.9456035 C25.6357881,98.9456035 26.9398462,97.7475056 27.4733665,96.0701686 L33.6372082,76.8964069 L39.7411039,96.1298404 C40.2156003,97.6878338 41.3416646,98.9456035 43.2382668,98.9456035 C45.1943539,98.9456035 46.6164597,97.3880763 46.6164597,95.5899971 C46.6164597,95.0510861 46.4384659,94.3322274 46.3204182,93.972798 L37.785939,69.6458169 C37.01494,67.4291028 35.5338104,66.4100203 33.8147409,66.4100203 L33.5777233,66.4100203 C31.800091,66.4100203 30.317578,67.4291028 29.6660101,69.5260072 L23.5616533,88.3403395 L17.3978115,69.5260072 C16.7457825,67.4291028 15.2641917,66.4100203 13.5451222,66.4100203 L13.3081046,66.4100203 C11.5300113,66.4100203 10.0484205,67.4291028 9.3373676,69.6458169" id="path24" transform="translate(23.591165, 82.677812) scale(1, -1) translate(-23.591165, -82.677812) "></path>
                <path d="M70.8564004,84.8643638 C70.3823651,89.5378779 67.6557401,93.1932419 62.9140041,93.1932419 C58.5282557,93.1932419 55.4470265,89.7774975 54.7949974,84.8643638 L70.8564004,84.8643638 L70.8564004,84.8643638 Z M63.7440269,66.1101695 C54.6764886,66.1101695 47.682624,72.7607782 47.682624,82.5273737 L47.682624,82.6476497 C47.682624,91.6949203 54.0244596,99.1249918 62.9739502,99.1249918 C72.9305352,99.1249918 77.8493427,90.8562518 77.8493427,83.5464562 C77.8493427,81.5087574 76.3091892,80.07104 74.472072,80.07104 L54.8540213,80.07104 C55.6250203,74.9182867 59.2402308,72.0419195 63.8625358,72.0419195 C66.8856634,72.0419195 69.2563008,73.1206737 71.2714118,74.7984769 C71.8044709,75.2175781 72.2785061,75.4571977 73.108529,75.4571977 C74.7090897,75.4571977 75.9532017,74.1989618 75.9532017,72.5211586 C75.9532017,71.6223521 75.5381902,70.8438216 75.0051311,70.3044444 C72.1599973,67.7278347 68.6042717,66.1101695 63.7440269,66.1101695 L63.7440269,66.1101695 Z" id="path28" transform="translate(62.765983, 82.617581) scale(1, -1) translate(-62.765983, -82.617581) "></path>
                <path d="M101.154309,78.3938894 L101.154309,80.5509318 C99.3171916,81.2702567 96.886608,81.8091676 94.0419353,81.8091676 C89.4187082,81.8091676 86.6930054,79.8316069 86.6930054,76.5366046 L86.6930054,76.4167948 C86.6930054,73.360946 89.3592232,71.623471 92.7969011,71.623471 C97.5386371,71.623471 101.154309,74.3790961 101.154309,78.3938894 M79.6986797,76.1170373 L79.6986797,76.236847 C79.6986797,83.0674035 84.9739359,86.4230099 92.6193684,86.4230099 C96.1165313,86.4230099 98.6052164,85.8836328 101.035339,85.1046361 L101.035339,85.8836328 C101.035339,90.3776653 98.3087138,92.7743272 93.2709364,92.7743272 C90.5452336,92.7743272 88.293105,92.2950881 86.3370178,91.5160913 C85.9224676,91.3962816 85.5669411,91.3361436 85.2109535,91.3361436 C83.551369,91.3361436 82.1882871,92.6545174 82.1882871,94.3318544 C82.1882871,95.6502283 83.0773337,96.7886544 84.1443742,97.2082217 C87.1075557,98.3466478 90.1306833,99.0655065 94.2199291,99.0655065 C98.9021801,99.0655065 102.398421,97.8072707 104.591526,95.5304185 C106.903139,93.2535664 107.969257,89.8979599 107.969257,85.763823 L107.969257,70.1848211 C107.969257,68.2077265 106.428643,66.7098711 104.473017,66.7098711 C102.398421,66.7098711 100.976315,68.1480547 100.976315,69.76572 L100.976315,70.9638178 C98.842234,68.3876743 95.5830111,66.3499756 90.7822512,66.3499756 C84.9149121,66.3499756 79.6986797,69.76572 79.6986797,76.1170373" id="path32" transform="translate(93.833969, 82.707741) scale(1, -1) translate(-93.833969, -82.707741) "></path>
                <path d="M114.475576,95.1108045 C114.475576,97.0878991 116.015729,98.7060305 118.031301,98.7060305 C120.046412,98.7060305 121.646973,97.0878991 121.646973,95.1108045 L121.646973,57.9613791 C121.646973,55.9246127 120.046412,54.3661531 118.031301,54.3661531 C116.075214,54.3661531 114.475576,55.9246127 114.475576,57.9613791 L114.475576,95.1108045 L114.475576,95.1108045 Z" id="path36" transform="translate(118.061274, 76.536092) scale(1, -1) translate(-118.061274, -76.536092) "></path>
                <path d="M147.597775,95.1108045 C147.597775,97.0878991 149.13839,98.7060305 151.153501,98.7060305 C153.168612,98.7060305 154.769172,97.0878991 154.769172,95.1108045 L154.769172,81.4492255 C156.784283,84.3857307 159.688441,86.9618742 164.548225,86.9618742 C171.600652,86.9618742 175.690359,82.1685504 175.690359,74.8587548 L175.690359,57.9613791 C175.690359,55.9246127 174.149283,54.3661531 172.134172,54.3661531 C170.119522,54.3661531 168.518962,55.9246127 168.518962,57.9613791 L168.518962,72.6415744 C168.518962,77.5547081 166.088839,80.3709374 161.822061,80.3709374 C157.67333,80.3709374 154.769172,77.4348983 154.769172,72.5217646 L154.769172,57.9613791 C154.769172,55.9246127 153.168612,54.3661531 151.153501,54.3661531 C149.197875,54.3661531 147.597775,55.9246127 147.597775,57.9613791 L147.597775,95.1108045 L147.597775,95.1108045 Z" id="path40" transform="translate(161.644067, 76.536092) scale(1, -1) translate(-161.644067, -76.536092) "></path>
                <path d="M103.976294,40.0589997 C102.066319,40.0589997 100.517866,41.6244521 100.517866,43.5553943 L100.517866,45.8397054 C100.517866,47.7706476 102.066319,49.3361 103.976294,49.3361 C105.886269,49.3361 107.434723,47.7706476 107.434723,45.8397054 L107.434723,43.5553943 C107.434723,41.6244521 105.886269,40.0589997 103.976294,40.0589997" id="path44" transform="translate(103.976294, 44.697550) scale(1, -1) translate(-103.976294, -44.697550) "></path>
                <path d="M142.330127,60.9832896 C142.09311,60.9832896 141.302283,60.8033418 140.47226,60.8033418 C138.042598,60.8033418 136.540257,61.9417679 136.540257,64.7579972 L136.540257,80.4642678 L136.540257,86.5246851 L136.540257,95.3505173 C136.540257,97.3276119 135.067428,98.9452772 133.111341,98.9452772 C131.09623,98.9452772 129.6234,97.3276119 129.6234,95.3505173 L129.6234,88.8556148 L129.6234,77.6671521 L129.6234,63.6195711 C129.6234,56.6687387 133.310085,54.3322147 138.58488,54.3322147 C140.481482,54.3322147 141.939095,54.6319723 143.48017,55.1713494 C144.487726,55.5904506 145.364322,56.6687387 145.364322,57.9871125 C145.364322,59.6649158 143.930227,60.9832896 142.330127,60.9832896" id="path48" transform="translate(137.493861, 76.638746) scale(1, -1) translate(-137.493861, -76.638746) "></path>
                <path d="M203.387944,105.399435 L195.564979,84.3683886 L187.149009,105.399435 C186.497441,107.077238 185.488963,108.155526 183.651846,108.155526 C181.637196,108.155526 180.09612,106.657671 180.09612,104.620438 C180.09612,104.141199 180.273653,103.42234 180.51067,102.882963 L192.127301,76.6385595 L192.061822,76.4572131 L192.800081,75.7933644 L188.529613,66.4099737 C193.223392,66.5847934 195.961084,69.0322696 198.528161,75.2605138 L209.967259,103.002773 C210.085306,103.362202 210.2633,104.141199 210.2633,104.740248 C210.2633,106.657671 208.721763,108.155526 206.825622,108.155526 C204.988505,108.155526 203.980949,106.897757 203.387944,105.399435 Z" id="path52" transform="translate(195.179710, 87.282750) scale(1, -1) translate(-195.179710, -87.282750) "></path>
                <path d="M190.1524,66.6995034 C188.464687,67.3843305 187.643887,69.3283259 188.318972,71.0401607 L203.750019,110.190456 C204.425104,111.902757 206.33969,112.735831 208.027403,112.051004 C209.715116,111.365711 210.535916,109.422182 209.86037,107.709881 L194.429784,68.5595853 C193.91517,67.2537985 192.678897,66.4594176 191.373456,66.4594176 C190.966745,66.4594176 190.553117,66.5363383 190.1524,66.6995034 Z" id="path56" transform="translate(199.089799, 89.375030) scale(1, -1) translate(-199.089799, -89.375030) "></path>
                <path d="M152.039227,40.3564263 C150.128791,40.3564263 148.580799,41.9218787 148.580799,43.8528209 L148.580799,45.8397054 C148.580799,47.7706476 150.128791,49.3361 152.039227,49.3361 C153.949663,49.3361 155.497656,47.7706476 155.497656,45.8397054 L155.497656,43.8528209 C155.497656,41.9218787 153.949663,40.3564263 152.039227,40.3564263" id="path60" transform="translate(152.039227, 44.846263) scale(1, -1) translate(-152.039227, -44.846263) "></path>
                <path d="M152.039227,21.2190272 C150.128791,21.2190272 148.580799,22.7844796 148.580799,24.7154218 L148.580799,45.8397054 C148.580799,47.7711138 150.128791,49.3361 152.039227,49.3361 C153.949663,49.3361 155.497656,47.7711138 155.497656,45.8397054 L155.497656,24.7154218 C155.497656,22.7844796 153.949663,21.2190272 152.039227,21.2190272" id="path64" transform="translate(152.039227, 35.277564) scale(1, -1) translate(-152.039227, -35.277564) "></path>
                <path d="M152.039227,0.985205298 C150.128791,0.985205298 148.580799,2.5506577 148.580799,4.48159987 L148.580799,11.4949012 C148.580799,13.4263096 150.128791,14.9912958 152.039227,14.9912958 C153.949663,14.9912958 155.497656,13.4263096 155.497656,11.4949012 L155.497656,4.48159987 C155.497656,2.5506577 153.949663,0.985205298 152.039227,0.985205298" id="path68" transform="translate(152.039227, 7.988251) scale(1, -1) translate(-152.039227, -7.988251) "></path>
                <path d="M135.1069,31.9002795 C133.196464,31.9002795 131.648471,33.4657319 131.648471,35.3966741 L131.648471,45.8397054 C131.648471,47.7706476 133.196464,49.3361 135.1069,49.3361 C137.017336,49.3361 138.565328,47.7706476 138.565328,45.8397054 L138.565328,35.3966741 C138.565328,33.4657319 137.017336,31.9002795 135.1069,31.9002795" id="path72" transform="translate(135.106900, 40.618190) scale(1, -1) translate(-135.106900, -40.618190) "></path>
                <path d="M135.1069,29.6393709 C133.196464,29.6393709 131.648471,29.8062655 131.648471,31.7372077 L131.648471,33.7240922 C131.648471,35.6550343 133.196464,37.2204867 135.1069,37.2204867 C137.017336,37.2204867 138.565328,35.6550343 138.565328,33.7240922 L138.565328,31.7372077 C138.565328,29.8062655 137.017336,29.6393709 135.1069,29.6393709" id="path76" transform="translate(135.106900, 33.429929) scale(1, -1) translate(-135.106900, -33.429929) "></path>
                <path d="M134.645776,11.5454358 C132.73534,11.5454358 131.187348,13.1108882 131.187348,15.0418303 L131.187348,19.9852661 C131.187348,21.9162083 132.73534,23.4816607 134.645776,23.4816607 C136.556212,23.4816607 138.104205,21.9162083 138.104205,19.9852661 L138.104205,15.0418303 C138.104205,13.1108882 136.556212,11.5454358 134.645776,11.5454358" id="path80" transform="translate(134.645776, 17.513548) scale(1, -1) translate(-134.645776, -17.513548) "></path>
                <path d="M119.033323,37.4269139 C117.122887,37.4269139 115.574895,38.9923663 115.574895,40.9233085 L115.574895,45.8397054 C115.574895,47.7706476 117.122887,49.3361 119.033323,49.3361 C120.943759,49.3361 122.491752,47.7706476 122.491752,45.8397054 L122.491752,40.9233085 C122.491752,38.9923663 120.943759,37.4269139 119.033323,37.4269139" id="path84" transform="translate(119.033323, 43.381507) scale(1, -1) translate(-119.033323, -43.381507) "></path>
                <path d="M119.033323,23.6742887 C117.122887,23.6742887 115.574895,25.2397411 115.574895,27.1706833 L115.574895,28.6648092 C115.574895,30.5957514 117.122887,32.1612038 119.033323,32.1612038 C120.943759,32.1612038 122.491752,30.5957514 122.491752,28.6648092 L122.491752,27.1706833 C122.491752,25.2397411 120.943759,23.6742887 119.033323,23.6742887" id="path88" transform="translate(119.033323, 27.917746) scale(1, -1) translate(-119.033323, -27.917746) "></path>
                <path d="M136.540395,73.6531979 L136.205158,73.6531979 C134.422454,73.6531979 132.977292,72.1921712 132.977292,70.3898963 C132.977292,68.5876215 134.422454,67.1265947 136.205158,67.1265947 L136.540395,67.1265947 L136.540395,73.6531979 L136.540395,73.6531979 Z" id="path92" transform="translate(134.758844, 70.389896) scale(1, -1) translate(-134.758844, -70.389896) "></path>
                <path d="M140.920149,73.6531979 L137.923767,73.6531979 L137.923767,67.1265947 L140.920149,67.1265947 C142.702854,67.1265947 144.148016,68.5876215 144.148016,70.3898963 C144.148016,72.1921712 142.702854,73.6531979 140.920149,73.6531979" id="path96" transform="translate(141.035891, 70.389896) scale(1, -1) translate(-141.035891, -70.389896) "></path>
            </g>
        </g>
    </g>
</svg>